<?xml version="1.0" standalone="no"?>
<!DOCTYPE svg PUBLIC "-//W3C//DTD SVG 20010904//EN"
 "http://www.w3.org/TR/2001/REC-SVG-20010904/DTD/svg10.dtd">
<svg version="1.0" xmlns="http://www.w3.org/2000/svg"
 width="768.000000pt" height="768.000000pt" viewBox="0 0 768.000000 768.000000"
 preserveAspectRatio="xMidYMid meet">
<metadata>
Created by potrace 1.14, written by Peter Selinger 2001-2017
</metadata>
<g transform="translate(0.000000,768.000000) scale(0.100000,-0.100000)"
fill="#000000" stroke="none">
<path d="M4368 4405 c-79 -43 -40 -175 52 -175 34 0 80 29 91 58 33 87 -59
162 -143 117z"/>
<path d="M5308 4405 c-79 -43 -40 -175 52 -175 34 0 80 29 91 58 33 87 -59
162 -143 117z"/>
<path d="M840 4353 c0 -5 13 -15 29 -24 18 -11 30 -28 34 -49 9 -42 9 -603 0
-654 -5 -31 -12 -41 -35 -50 -15 -6 -28 -16 -28 -23 0 -10 38 -13 165 -13 128
0 165 3 165 13 0 7 -15 17 -32 22 -52 16 -58 40 -55 215 l2 155 62 3 c74 4 95
-6 128 -58 14 -22 30 -40 35 -40 6 0 10 46 10 115 0 120 -8 138 -35 84 -32
-60 -48 -69 -130 -69 l-75 0 0 175 0 175 114 0 c132 0 127 3 183 -100 26 -48
44 -70 57 -70 17 0 18 5 12 46 -3 26 -6 71 -6 100 l0 54 -300 0 c-165 0 -300
-3 -300 -7z"/>
<path d="M4383 4123 c-66 -22 -103 -40 -103 -49 0 -8 6 -14 14 -14 8 0 22 -7
30 -16 14 -13 16 -48 16 -227 0 -117 -4 -217 -8 -223 -4 -6 -17 -16 -29 -23
-47 -24 -22 -31 117 -31 106 0 140 3 140 13 0 7 -10 17 -22 22 -23 10 -23 11
-28 294 -3 177 -9 285 -15 287 -5 1 -56 -13 -112 -33z"/>
<path d="M5323 4123 c-66 -22 -103 -40 -103 -49 0 -8 6 -14 14 -14 8 0 22 -7
30 -16 14 -13 16 -48 16 -227 0 -117 -4 -217 -8 -223 -4 -6 -17 -16 -29 -23
-47 -24 -22 -31 117 -31 106 0 140 3 140 13 0 7 -10 17 -22 22 -23 10 -23 11
-28 294 -3 177 -9 285 -15 287 -5 1 -56 -13 -112 -33z"/>
<path d="M1647 4140 c-92 -24 -160 -80 -199 -165 -34 -76 -32 -200 4 -275 31
-65 41 -77 88 -112 111 -83 308 -71 408 25 57 54 75 101 80 203 7 152 -40 244
-152 299 -60 29 -166 41 -229 25z m128 -34 c46 -20 65 -60 77 -172 12 -110 -2
-265 -27 -314 -23 -44 -77 -66 -125 -51 -68 20 -89 66 -97 221 -6 109 6 219
29 267 12 27 68 63 96 63 7 0 28 -6 47 -14z"/>
<path d="M2168 4112 c-54 -20 -98 -41 -98 -47 0 -5 14 -18 30 -27 l30 -17 0
-208 c0 -114 -4 -213 -8 -219 -4 -6 -17 -16 -29 -23 -48 -25 -21 -31 133 -31
120 0 155 3 152 13 -3 6 -13 14 -24 16 -10 1 -27 10 -36 19 -16 13 -18 36 -18
199 l0 183 33 36 32 36 39 -31 c49 -39 78 -47 115 -31 57 23 65 110 14 150
-52 41 -132 14 -202 -67 l-41 -48 0 51 c0 84 -9 88 -122 46z"/>
<path d="M2688 4112 c-54 -20 -98 -41 -98 -47 0 -5 14 -18 30 -27 l30 -17 0
-210 c0 -177 -2 -212 -16 -225 -8 -9 -22 -16 -30 -16 -8 0 -14 -7 -14 -15 0
-13 22 -15 140 -15 106 0 140 3 140 13 0 7 -10 17 -22 22 -23 10 -23 11 -23
230 l0 219 40 23 c51 29 108 30 135 3 19 -19 20 -31 18 -243 l-3 -222 -27 -13
c-53 -25 -29 -32 112 -32 118 0 140 2 140 15 0 8 -6 15 -14 15 -30 0 -35 28
-37 235 l-2 209 32 24 c44 35 117 41 151 14 25 -20 25 -21 28 -219 4 -209 -2
-251 -38 -260 -11 -3 -20 -12 -20 -19 0 -11 27 -14 140 -14 141 0 165 7 113
32 l-28 13 -5 230 c-6 267 -10 283 -87 317 -35 15 -59 19 -98 15 -57 -6 -139
-43 -169 -76 -22 -24 -46 -28 -46 -7 0 8 -14 28 -30 45 -60 59 -165 51 -264
-20 l-53 -38 -6 41 c-3 22 -9 44 -14 48 -4 5 -52 -8 -105 -28z"/>
<path d="M3827 4140 c-90 -23 -146 -79 -154 -154 -8 -68 5 -113 44 -157 l35
-39 -24 -33 c-49 -64 -60 -95 -48 -133 7 -19 23 -42 36 -51 l24 -15 -40 -44
c-90 -98 -80 -182 28 -232 52 -25 67 -27 177 -26 101 0 129 4 179 23 110 44
175 132 163 221 -12 91 -62 120 -289 164 -169 33 -188 43 -188 94 0 22 3 23
28 16 15 -5 72 -9 128 -9 94 0 104 2 149 30 26 17 56 46 66 65 23 43 25 139 4
180 l-16 30 66 0 65 0 0 33 c0 45 -8 50 -44 28 -62 -38 -99 -41 -154 -14 -56
28 -171 39 -235 23z m122 -31 c47 -17 65 -59 65 -154 0 -114 -31 -165 -99
-165 -66 0 -95 50 -95 162 0 83 20 135 60 155 31 16 30 16 69 2z m-24 -589
c137 -26 180 -44 195 -81 10 -23 9 -34 -6 -66 -27 -53 -71 -76 -163 -81 -97
-5 -152 9 -186 50 -24 29 -27 38 -23 94 4 69 29 118 56 110 9 -3 67 -14 127
-26z"/>
<path d="M5641 4116 c-100 -34 -119 -50 -78 -65 13 -5 27 -17 31 -26 3 -9 6
-108 6 -221 l0 -203 -30 -23 c-16 -12 -30 -25 -30 -30 0 -4 63 -8 140 -8 77 0
140 4 140 9 0 5 -11 16 -25 25 l-25 17 2 222 3 221 40 23 c49 28 105 30 136 4
24 -19 24 -20 24 -241 l0 -222 -27 -22 c-16 -12 -28 -25 -28 -29 0 -4 63 -7
140 -7 77 0 140 3 140 6 0 3 -13 19 -30 34 l-30 28 0 214 c0 247 -5 267 -80
306 -73 37 -144 27 -243 -32 l-57 -35 0 28 c0 15 -6 34 -12 43 -12 14 -23 12
-107 -16z"/>
<path d="M6407 4140 c-90 -23 -146 -79 -154 -154 -8 -68 5 -113 44 -157 l35
-39 -24 -33 c-49 -64 -60 -95 -48 -133 7 -19 23 -42 36 -51 l24 -15 -40 -44
c-90 -98 -80 -182 28 -232 52 -25 67 -27 177 -26 101 0 129 4 179 23 110 44
175 132 163 221 -12 91 -62 120 -289 164 -169 33 -188 43 -188 94 0 22 3 23
28 16 15 -5 72 -9 128 -9 94 0 104 2 149 30 26 17 56 46 66 65 23 43 25 139 4
180 l-16 30 66 0 65 0 0 33 c0 45 -8 50 -44 28 -62 -38 -99 -41 -154 -14 -56
28 -171 39 -235 23z m122 -31 c47 -17 65 -59 65 -154 0 -114 -31 -165 -99
-165 -66 0 -95 50 -95 162 0 83 20 135 60 155 31 16 30 16 69 2z m-24 -589
c137 -26 180 -44 195 -81 10 -23 9 -34 -6 -66 -27 -53 -71 -76 -163 -81 -97
-5 -152 9 -186 50 -24 29 -27 38 -23 94 4 69 29 118 56 110 9 -3 67 -14 127
-26z"/>
<path d="M4570 4128 c0 -7 15 -20 32 -28 29 -14 42 -38 147 -287 l115 -273 35
0 36 0 94 260 c52 144 101 269 108 280 7 10 27 21 43 25 17 4 30 13 30 21 0
11 -19 14 -90 14 -73 0 -90 -3 -90 -15 0 -8 6 -15 13 -15 7 0 21 -6 32 -13 17
-13 15 -23 -46 -195 -35 -100 -67 -182 -70 -182 -3 0 -37 82 -74 181 -66 174
-68 182 -50 195 10 8 25 14 32 14 7 0 13 7 13 15 0 13 -24 15 -155 15 -117 0
-155 -3 -155 -12z"/>
</g>
</svg>
